<svg width="1920" height="1080" viewBox="0 0 1920 1080" fill="none" xmlns="http://www.w3.org/2000/svg">
<g opacity="0.2">
<line y1="60.5" x2="1920" y2="60.5" stroke="url(#paint0_linear_68_109)"/>
<line opacity="0.6" x1="365.89" y1="2.18557e-08" x2="365.89" y2="549.153" stroke="url(#paint1_linear_68_109)"/>
<line opacity="0.6" y1="-0.5" x2="1080" y2="-0.5" transform="matrix(1.19249e-08 -1 -1 -1.19249e-08 1219.63 1080)" stroke="url(#paint2_linear_68_109)"/>
<line opacity="0.6" x1="533.687" y1="2.18557e-08" x2="533.686" y2="1080" stroke="url(#paint3_linear_68_109)"/>
<line opacity="0.6" x1="1387.92" y1="2.18557e-08" x2="1387.92" y2="1080" stroke="white"/>
<line opacity="0.6" x1="701.483" y1="2.18557e-08" x2="701.483" y2="1080" stroke="url(#paint4_linear_68_109)"/>
<line opacity="0.6" x1="1555.72" y1="2.18557e-08" x2="1555.72" y2="549.153" stroke="url(#paint5_linear_68_109)"/>
<line opacity="0.8" y1="380.5" x2="944" y2="380.5" stroke="url(#paint6_linear_68_109)"/>
<line x1="1920" y1="760.5" x2="533" y2="760.5" stroke="url(#paint7_linear_68_109)"/>
<line opacity="0.4" y1="566.5" x2="1920" y2="566.5" stroke="white"/>
<line y1="-0.5" x2="1920" y2="-0.5" transform="matrix(-1 0 0 1 1920 970)" stroke="url(#paint8_linear_68_109)"/>
<line opacity="0.4" x1="960.5" y1="2.18557e-08" x2="960.5" y2="1080" stroke="white"/>
</g>
<defs>
<linearGradient id="paint0_linear_68_109" x1="0" y1="61" x2="1944.73" y2="61" gradientUnits="userSpaceOnUse">
<stop stop-color="white" stop-opacity="0"/>
<stop offset="0.49" stop-color="white" stop-opacity="0.5"/>
<stop offset="1" stop-color="white" stop-opacity="0"/>
</linearGradient>
<linearGradient id="paint1_linear_68_109" x1="365.39" y1="0" x2="365.39" y2="556.225" gradientUnits="userSpaceOnUse">
<stop stop-color="white"/>
<stop offset="1" stop-color="white" stop-opacity="0"/>
</linearGradient>
<linearGradient id="paint2_linear_68_109" x1="0" y1="0" x2="1373.64" y2="2.51017e-05" gradientUnits="userSpaceOnUse">
<stop stop-color="white"/>
<stop offset="1" stop-color="white" stop-opacity="0"/>
</linearGradient>
<linearGradient id="paint3_linear_68_109" x1="533.187" y1="0" x2="533.186" y2="1093.91" gradientUnits="userSpaceOnUse">
<stop stop-color="white"/>
<stop offset="1" stop-color="white" stop-opacity="0"/>
</linearGradient>
<linearGradient id="paint4_linear_68_109" x1="700.983" y1="0" x2="700.983" y2="1093.91" gradientUnits="userSpaceOnUse">
<stop stop-color="white"/>
<stop offset="1" stop-color="white" stop-opacity="0"/>
</linearGradient>
<linearGradient id="paint5_linear_68_109" x1="1555.22" y1="0" x2="1555.22" y2="556.225" gradientUnits="userSpaceOnUse">
<stop stop-color="white"/>
<stop offset="1" stop-color="white" stop-opacity="0"/>
</linearGradient>
<linearGradient id="paint6_linear_68_109" x1="0" y1="381" x2="956.158" y2="381" gradientUnits="userSpaceOnUse">
<stop stop-color="white"/>
<stop offset="1" stop-color="white" stop-opacity="0"/>
</linearGradient>
<linearGradient id="paint7_linear_68_109" x1="1920" y1="760" x2="515.137" y2="760" gradientUnits="userSpaceOnUse">
<stop stop-color="white"/>
<stop offset="1" stop-color="white" stop-opacity="0"/>
</linearGradient>
<linearGradient id="paint8_linear_68_109" x1="0" y1="0" x2="1944.73" y2="2.87938e-07" gradientUnits="userSpaceOnUse">
<stop stop-color="white"/>
<stop offset="1" stop-color="white" stop-opacity="0"/>
</linearGradient>
</defs>
</svg>
