<svg width="40" height="40" viewBox="0 0 40 40" fill="none" xmlns="http://www.w3.org/2000/svg">
<path d="M25 26.6667L24.8529 27.4021C25.1846 27.4684 25.5196 27.3046 25.6708 27.0021L25 26.6667ZM13.3333 15L12.9979 14.3292C12.6954 14.4804 12.5316 14.8154 12.5979 15.1471L13.3333 15ZM13.9234 14.705L14.2588 15.3758L13.9234 14.705ZM15.5276 10.4856L16.2239 10.2071L15.5276 10.4856ZM14.1715 7.09537L13.4751 7.37391V7.37391L14.1715 7.09537ZM32.9046 25.8285L32.6261 26.5249L32.9046 25.8285ZM29.5144 24.4724L29.793 23.7761H29.7929L29.5144 24.4724ZM25.295 26.0766L25.9658 26.4121V26.412L25.295 26.0766ZM27.5833 18.3333C27.5833 18.7475 27.9191 19.0833 28.3333 19.0833C28.7475 19.0833 29.0833 18.7475 29.0833 18.3333H27.5833ZM27.8259 15.7821L28.5188 15.4951L27.8259 15.7821ZM24.2179 12.1741L24.5049 11.4812L24.2179 12.1741ZM21.6667 10.9167C21.2525 10.9167 20.9167 11.2525 20.9167 11.6667C20.9167 12.0809 21.2525 12.4167 21.6667 12.4167V10.9167ZM34.25 18.3333C34.25 18.7475 34.5858 19.0833 35 19.0833C35.4142 19.0833 35.75 18.7475 35.75 18.3333H34.25ZM33.9851 13.2309L34.678 12.9439L33.9851 13.2309ZM26.7691 6.01494L27.0561 5.32203V5.32203L26.7691 6.01494ZM21.6667 4.25C21.2525 4.25 20.9167 4.58579 20.9167 5C20.9167 5.41421 21.2525 5.75 21.6667 5.75V4.25ZM34.25 28.9234V31.6667H35.75V28.9234H34.25ZM8.33333 5.75H11.0766V4.25H8.33333V5.75ZM25 26.6667C25.1471 25.9312 25.1473 25.9313 25.1475 25.9313C25.1475 25.9313 25.1477 25.9314 25.1478 25.9314C25.148 25.9314 25.1481 25.9314 25.1481 25.9314C25.1482 25.9315 25.148 25.9314 25.1476 25.9313C25.1468 25.9312 25.145 25.9308 25.1422 25.9302C25.1367 25.929 25.1272 25.927 25.1141 25.9241C25.0878 25.9183 25.0466 25.9089 24.9917 25.8956C24.882 25.8689 24.7177 25.8264 24.5085 25.7649C24.0898 25.6417 23.4933 25.4431 22.7954 25.144C21.3962 24.5443 19.6106 23.5499 18.0303 21.9697L16.9697 23.0303C18.7228 24.7834 20.6871 25.8723 22.2046 26.5227C22.965 26.8486 23.6185 27.0666 24.0852 27.2039C24.3188 27.2726 24.5061 27.3212 24.6372 27.3531C24.7028 27.3691 24.7543 27.3808 24.7907 27.3889C24.8089 27.3929 24.8233 27.3959 24.8337 27.3981C24.8389 27.3992 24.8431 27.4001 24.8463 27.4008C24.8479 27.4011 24.8493 27.4014 24.8504 27.4016C24.8509 27.4017 24.8514 27.4018 24.8518 27.4019C24.852 27.4019 24.8523 27.402 24.8524 27.402C24.8527 27.4021 24.8529 27.4021 25 26.6667ZM18.0303 21.9697C16.4501 20.3894 15.4557 18.6038 14.856 17.2046C14.5569 16.5067 14.3583 15.9102 14.2351 15.4915C14.1736 15.2823 14.1311 15.118 14.1044 15.0083C14.0911 14.9534 14.0817 14.9122 14.0759 14.8859C14.073 14.8728 14.071 14.8633 14.0698 14.8578C14.0692 14.855 14.0688 14.8532 14.0687 14.8524C14.0686 14.852 14.0685 14.8518 14.0686 14.8519C14.0686 14.8519 14.0686 14.852 14.0686 14.8522C14.0686 14.8523 14.0687 14.8525 14.0687 14.8525C14.0687 14.8527 14.0688 14.8529 13.3333 15C12.5979 15.1471 12.5979 15.1473 12.598 15.1476C12.598 15.1477 12.5981 15.148 12.5981 15.1482C12.5982 15.1486 12.5983 15.1491 12.5984 15.1496C12.5986 15.1507 12.5989 15.1521 12.5992 15.1537C12.5999 15.1569 12.6008 15.1611 12.6019 15.1663C12.6041 15.1767 12.6071 15.1911 12.6111 15.2093C12.6192 15.2457 12.6309 15.2972 12.6469 15.3628C12.6788 15.4939 12.7274 15.6812 12.7961 15.9147C12.9334 16.3815 13.1514 17.035 13.4773 17.7954C14.1277 19.3129 15.2166 21.2772 16.9697 23.0303L18.0303 21.9697ZM13.6687 15.6708L14.2588 15.3758L13.588 14.0342L12.9979 14.3292L13.6687 15.6708ZM16.2239 10.2071L14.8678 6.81682L13.4751 7.37391L14.8312 10.7641L16.2239 10.2071ZM33.1832 25.1322L29.793 23.7761L29.2359 25.1688L32.6261 26.5249L33.1832 25.1322ZM24.6242 25.7412L24.3292 26.3313L25.6708 27.0021L25.9658 26.4121L24.6242 25.7412ZM29.7929 23.7761C27.8211 22.9874 25.5739 23.8417 24.6242 25.7412L25.9658 26.412C26.5667 25.2103 27.9884 24.6698 29.2359 25.1688L29.7929 23.7761ZM14.2588 15.3758C16.1583 14.4261 17.0126 12.1789 16.2239 10.2071L14.8312 10.7641C15.3302 12.0116 14.7897 13.4333 13.588 14.0342L14.2588 15.3758ZM11.0766 5.75C12.1329 5.75 13.0828 6.39312 13.4751 7.37391L14.8678 6.81682C14.2477 5.26655 12.7463 4.25 11.0766 4.25V5.75ZM35.75 28.9234C35.75 27.2537 34.7334 25.7523 33.1832 25.1322L32.6261 26.5249C33.6069 26.9172 34.25 27.8671 34.25 28.9234H35.75ZM31.6667 34.25C17.3533 34.25 5.75 22.6467 5.75 8.33333H4.25C4.25 23.4751 16.5249 35.75 31.6667 35.75V34.25ZM31.6667 35.75C33.9218 35.75 35.75 33.9218 35.75 31.6667H34.25C34.25 33.0934 33.0934 34.25 31.6667 34.25V35.75ZM5.75 8.33333C5.75 6.9066 6.9066 5.75 8.33333 5.75V4.25C6.07817 4.25 4.25 6.07817 4.25 8.33333H5.75ZM29.0833 18.3333C29.0833 17.3594 28.8915 16.3949 28.5188 15.4951L27.133 16.0691C27.4303 16.787 27.5833 17.5563 27.5833 18.3333H29.0833ZM28.5188 15.4951C28.1461 14.5953 27.5997 13.7777 26.911 13.089L25.8504 14.1496C26.3998 14.699 26.8356 15.3513 27.133 16.0691L28.5188 15.4951ZM26.911 13.089C26.2223 12.4003 25.4047 11.8539 24.5049 11.4812L23.9309 12.867C24.6487 13.1644 25.301 13.6002 25.8504 14.1496L26.911 13.089ZM24.5049 11.4812C23.6051 11.1085 22.6406 10.9167 21.6667 10.9167V12.4167C22.4437 12.4167 23.213 12.5697 23.9309 12.867L24.5049 11.4812ZM35.75 18.3333C35.75 16.4839 35.3857 14.6525 34.678 12.9439L33.2922 13.5179C33.9245 15.0446 34.25 16.6809 34.25 18.3333H35.75ZM34.678 12.9439C33.9702 11.2352 32.9328 9.68267 31.6251 8.37491L30.5644 9.43557C31.7329 10.604 32.6598 11.9912 33.2922 13.5179L34.678 12.9439ZM31.6251 8.37491C30.3173 7.06715 28.7648 6.02978 27.0561 5.32203L26.4821 6.70785C28.0088 7.34022 29.396 8.2671 30.5644 9.43557L31.6251 8.37491ZM27.0561 5.32203C25.3475 4.61428 23.5161 4.25 21.6667 4.25V5.75C23.3191 5.75 24.9554 6.07548 26.4821 6.70785L27.0561 5.32203Z" fill="#3C66D1"/>
</svg>
