<svg width="104" height="104" viewBox="0 0 104 104" fill="none" xmlns="http://www.w3.org/2000/svg">
<circle cx="52" cy="52" r="52" fill="#3C66D1"/>
<path d="M47.9204 90.9392L47.1635 97.8982L45.9507 97.7663L46.7075 90.8073L47.9204 90.9392Z" fill="white"/>
<path d="M41.445 89.7175L39.2099 96.351L37.959 95.9296L36.6898 90.442L35.1587 94.986L34.0026 94.5965L36.2377 87.9629L37.4838 88.3828L38.7579 93.8719L40.2889 89.3279L41.445 89.7175Z" fill="white"/>
<path d="M33.6142 86.5382L30.0053 92.5362L28.0174 91.3402C27.6033 91.091 27.2635 90.7796 26.9981 90.4059C26.7282 90.0335 26.5395 89.6262 26.432 89.1842C26.3199 88.7433 26.2959 88.2951 26.3599 87.8395C26.4193 87.3851 26.5737 86.9509 26.8228 86.5367C27.072 86.1226 27.3843 85.7814 27.7596 85.5132C28.1304 85.2461 28.5377 85.0574 28.9814 84.947C29.4206 84.8378 29.8688 84.8138 30.326 84.8749C30.7787 84.9372 31.2121 85.093 31.6263 85.3422L33.6142 86.5382ZM31.9398 86.9546L30.9973 86.3875C30.7317 86.2277 30.4517 86.1273 30.1573 86.0864C29.8584 86.0466 29.5657 86.0611 29.2792 86.1299C28.991 86.2015 28.725 86.3236 28.4813 86.4959C28.2358 86.6711 28.0315 86.8944 27.8682 87.1657C27.7049 87.437 27.6043 87.7207 27.5662 88.0168C27.5281 88.3129 27.5449 88.605 27.6165 88.8932C27.6882 89.1814 27.8111 89.446 27.9851 89.6869C28.1575 89.9306 28.3779 90.1333 28.6464 90.2948L29.5889 90.8619L31.9398 86.9546Z" fill="white"/>
<path d="M26.9683 82.0545L22.1544 87.1365L18.9673 84.1175L19.8063 83.2317L22.1077 85.4117L23.0842 84.3808L21.2583 82.6513L22.0973 81.7656L23.9232 83.4951L25.2436 82.1012L22.9422 79.9212L23.7812 79.0355L26.9683 82.0545Z" fill="white"/>
<path d="M21.1284 75.9576L15.3346 79.8859L13.9316 77.8167C13.7184 77.5021 13.6043 77.1647 13.5895 76.8042C13.5728 76.441 13.6463 76.0951 13.8102 75.7665C13.974 75.438 14.2146 75.1661 14.5319 74.951C14.8574 74.7303 15.205 74.6074 15.5746 74.5823C15.9396 74.5563 16.2877 74.6183 16.619 74.7683C16.9474 74.9201 17.2146 75.1478 17.4203 75.4513L18.1386 76.5107L20.4438 74.9478L21.1284 75.9576ZM17.1289 77.1954L16.4835 76.2435C16.3862 76.1 16.2615 75.9933 16.1093 75.9233C15.9572 75.8533 15.797 75.825 15.6288 75.8383C15.4588 75.8489 15.2993 75.9047 15.1503 76.0057C14.9986 76.1086 14.8863 76.237 14.8136 76.3911C14.7389 76.5424 14.706 76.7016 14.7147 76.8689C14.7234 77.0362 14.7764 77.1916 14.8736 77.335L15.519 78.2869L17.1289 77.1954Z" fill="white"/>
<path d="M16.7132 68.705L10.2104 71.2959L8.58547 67.2177L9.71882 66.7662L10.8922 69.711L12.2113 69.1854L11.2804 66.849L12.4138 66.3975L13.3447 68.7338L15.1283 68.0232L13.955 65.0783L15.0883 64.6268L16.7132 68.705Z" fill="white"/>
<path d="M13.8948 60.2415L6.98703 61.374L6.77348 60.0714L11.0272 56.3796L6.29541 57.1553L6.09804 55.9514L13.0058 54.8189L13.2186 56.1166L8.96561 59.8133L13.6974 59.0376L13.8948 60.2415Z" fill="white"/>
<path d="M13.0357 51.8338L6.04595 51.4548L6.17155 49.1382C6.19772 48.6556 6.3137 48.2095 6.51951 47.8001C6.72216 47.3871 6.99358 47.0296 7.33377 46.7276C7.6708 46.4221 8.05555 46.1909 8.488 46.0341C8.91731 45.8737 9.37328 45.8067 9.85591 45.8328C10.3385 45.859 10.7862 45.9751 11.199 46.181C11.6087 46.3835 11.9662 46.6549 12.2715 46.9953C12.5737 47.3322 12.8049 47.7169 12.965 48.1495C13.122 48.5787 13.1875 49.0345 13.1613 49.5172L13.0357 51.8338ZM11.8835 50.5495L11.9431 49.4511C11.9599 49.1416 11.9174 48.8472 11.8157 48.5679C11.7109 48.2852 11.5609 48.0334 11.3659 47.8125C11.1676 47.5914 10.9352 47.4136 10.6688 47.279C10.399 47.1441 10.1061 47.0682 9.78986 47.051C9.47365 47.0339 9.17584 47.0778 8.89641 47.1829C8.61698 47.2879 8.36674 47.4396 8.14567 47.6379C7.92461 47.8362 7.74844 48.0687 7.61714 48.3353C7.48252 48.6017 7.40673 48.8914 7.38976 49.2043L7.33021 50.3026L11.8835 50.5495Z" fill="white"/>
<path d="M13.8842 43.8617L7.13939 41.989L8.31384 37.759L9.48937 38.0854L8.64131 41.1399L10.0095 41.5198L10.6824 39.0964L11.8579 39.4228L11.1851 41.8462L13.0351 42.3598L13.8832 39.3054L15.0587 39.6317L13.8842 43.8617Z" fill="white"/>
<path d="M16.7623 35.4186L10.5777 32.1397L11.196 30.9735L16.8166 30.6087L12.5802 28.3627L13.1516 27.2848L19.3362 30.5637L18.7202 31.7255L13.0973 32.0947L17.3338 34.3407L16.7623 35.4186Z" fill="white"/>
<path d="M19.0713 19.8592L20.0011 20.649L18.6157 22.2801L23.021 26.022L22.2312 26.9518L17.8259 23.2099L16.4405 24.8409L15.5107 24.0511L19.0713 19.8592Z" fill="white"/>
<path d="M32.0726 18.3154L30.3677 11.3913L31.2843 10.9672L34.7149 14.3218L34.3791 9.53537L35.2958 9.11129L39.4693 14.8933L38.3394 15.416L35.7589 11.8389L36.0804 16.2848L35.3226 16.6355L32.1422 13.5122L33.2025 17.7926L32.0726 18.3154Z" fill="white"/>
<path d="M41.4609 7.25275L42.8331 6.95072L46.8234 13.24L45.5587 13.5183L44.8526 12.4041L41.9228 13.049L41.7498 14.3567L40.4851 14.6351L41.4609 7.25275ZM42.0951 11.7618L44.1509 11.3093L42.5004 8.71858L42.0951 11.7618Z" fill="white"/>
<path d="M50.119 13V6L52.804 6C53.184 6 53.5274 6.095 53.834 6.285C54.1407 6.475 54.384 6.73 54.564 7.05C54.744 7.36667 54.834 7.71833 54.834 8.105C54.834 8.42167 54.7757 8.71333 54.659 8.98C54.5457 9.24333 54.3857 9.47167 54.179 9.665C53.9757 9.85833 53.7407 10.005 53.474 10.105L55.149 13H53.744L52.124 10.215H51.339V13H50.119ZM51.339 8.995H52.664C52.8374 8.995 52.9957 8.95167 53.139 8.865C53.2824 8.77833 53.3974 8.66167 53.484 8.515C53.5707 8.36833 53.614 8.205 53.614 8.025C53.614 7.84167 53.5707 7.67667 53.484 7.53C53.3974 7.38333 53.2824 7.26667 53.139 7.18C52.9957 7.09333 52.8374 7.05 52.664 7.05H51.339V8.995Z" fill="white"/>
<path d="M62.1948 14.2721L60.642 13.9303L59.313 10.8271L58.8939 11.1495L58.3909 13.4348L57.1994 13.1726L58.7042 6.33621L59.8957 6.59848L59.3013 9.29883L62.1565 7.09614L63.7142 7.43901L60.2947 10.0653L62.1948 14.2721Z" fill="white"/>
<path d="M66.4726 15.6393L69.4119 9.28632L73.3961 11.1296L72.8839 12.2369L70.0068 10.9058L69.4106 12.1946L71.6932 13.2506L71.1809 14.3578L68.8983 13.3018L68.0921 15.0444L70.9692 16.3754L70.4569 17.4827L66.4726 15.6393Z" fill="white"/>
<path d="M82.5516 17.2956L81.8133 18.2668L80.1097 16.9718L76.6118 21.5732L75.6405 20.8349L79.1385 16.2335L77.4348 14.9384L78.1731 13.9671L82.5516 17.2956Z" fill="white"/>
<path d="M81.9658 26.7959L87.3009 22.2642L88.0907 23.1941L82.7556 27.7258L81.9658 26.7959Z" fill="white"/>
<path d="M85.8267 32.1361L92.0113 28.8573L92.6296 30.0235L89.7773 34.8803L94.0137 32.6343L94.5852 33.7122L88.4006 36.991L87.7846 35.8292L90.6346 30.968L86.3981 33.214L85.8267 32.1361Z" fill="white"/>
<path d="M89.804 42.0386C89.6738 41.5697 89.644 41.1074 89.7147 40.6519C89.7863 40.1996 89.9413 39.7795 90.1795 39.3916C90.421 39.0029 90.7285 38.665 91.1019 38.3779C91.4795 38.0932 91.9092 37.8839 92.391 37.7502C92.8985 37.6093 93.3892 37.5699 93.8631 37.632C94.3378 37.6974 94.7747 37.8442 95.1737 38.0725C95.5726 38.3007 95.9125 38.5904 96.1933 38.9414C96.475 39.2956 96.676 39.6895 96.7964 40.1231C96.9311 40.6081 96.9477 41.1103 96.8463 41.6297C96.749 42.1514 96.5128 42.6528 96.1379 43.134L95.2826 42.2402C95.4862 41.9519 95.6135 41.6502 95.6644 41.3351C95.7194 41.0223 95.7067 40.7214 95.6265 40.4323C95.548 40.1497 95.4148 39.8944 95.227 39.6663C95.04 39.4415 94.8125 39.2573 94.5443 39.1138C94.2802 38.9726 93.9892 38.8839 93.6713 38.8477C93.3565 38.8105 93.0305 38.8387 92.6933 38.9324C92.3753 39.0207 92.0906 39.1603 91.8392 39.3511C91.591 39.5411 91.3881 39.7635 91.2305 40.0183C91.077 40.2754 90.977 40.5505 90.9304 40.8437C90.8838 41.1368 90.9019 41.4328 90.9849 41.7315C91.0401 41.9306 91.1246 42.1164 91.2382 42.289C91.356 42.4639 91.4975 42.6183 91.6627 42.7523C91.8288 42.8896 92.0152 43.0004 92.222 43.0848C92.4297 43.1725 92.6536 43.2314 92.8938 43.2615L92.5527 42.033L93.5789 41.7481L94.3039 44.3593C93.816 44.5086 93.3337 44.5595 92.857 44.512C92.3802 44.4645 91.9341 44.3341 91.5185 44.1208C91.103 43.9075 90.7459 43.6244 90.4472 43.2714C90.1486 42.9185 89.9342 42.5075 89.804 42.0386Z" fill="white"/>
<path d="M97.7746 58.7358L97.5473 60.1223L90.2278 61.5013L90.4373 60.2234L91.7338 59.9799L92.2191 57.0194L91.0682 56.3747L91.2778 55.0968L97.7746 58.7358ZM93.351 57.6559L93.0105 59.7332L96.0282 59.1588L93.351 57.6559Z" fill="white"/>
<path d="M88.2091 66.8655C88.3892 66.4134 88.6452 66.0274 88.9772 65.7076C89.3079 65.3908 89.6855 65.1502 90.1099 64.9856C90.5374 64.8222 90.9867 64.7393 91.4577 64.7368C91.9306 64.7386 92.3993 64.8321 92.8638 65.0171C93.3531 65.2121 93.7675 65.4777 94.1072 65.8139C94.4456 66.1533 94.7046 66.5346 94.884 66.9577C95.0635 67.3808 95.1588 67.8171 95.1699 68.2665C95.1798 68.7189 95.1015 69.1542 94.9349 69.5722C94.7486 70.0398 94.4579 70.4497 94.0628 70.8018C93.6697 71.1582 93.1782 71.4145 92.5885 71.5707L92.4485 70.3416C92.7851 70.2353 93.069 70.0721 93.3002 69.852C93.5333 69.6363 93.7053 69.3891 93.8164 69.1104C93.925 68.8379 93.9735 68.5541 93.9619 68.2588C93.9492 67.9667 93.8794 67.6823 93.7528 67.4058C93.628 67.1336 93.45 66.8869 93.2189 66.6656C92.9908 66.4456 92.7142 66.2708 92.389 66.1412C92.0825 66.0191 91.7713 65.9579 91.4557 65.9577C91.1431 65.9588 90.847 66.013 90.5673 66.1205C90.2895 66.2323 90.0434 66.3907 89.8289 66.5959C89.6144 66.8011 89.4498 67.0477 89.335 67.3357C89.2585 67.5276 89.2133 67.7267 89.1993 67.9328C89.1872 68.1433 89.2064 68.3519 89.2568 68.5586C89.306 68.7683 89.3874 68.9694 89.5009 69.1617C89.6132 69.3572 89.7558 69.5396 89.9287 69.709L90.4006 68.5245L91.39 68.9187L90.3869 71.4362C89.9082 71.2599 89.4935 71.0085 89.1427 70.6821C88.7919 70.3558 88.5156 69.982 88.3139 69.5607C88.1122 69.1395 87.9992 68.698 87.9751 68.2363C87.9509 67.7745 88.0289 67.3176 88.2091 66.8655Z" fill="white"/>
<path d="M85.8156 72.1012L91.6094 76.0295L89.1458 79.663L88.136 78.9784L89.915 76.3546L88.7396 75.5577L87.3283 77.6393L86.3185 76.9547L87.7299 74.8731L86.1407 73.7956L84.3617 76.4194L83.352 75.7347L85.8156 72.1012Z" fill="white"/>
<path d="M80.3922 79.1833L85.2061 84.2653L84.2478 85.1731L78.8049 83.7241L82.1025 87.2052L81.2167 88.0442L76.4028 82.9622L77.3575 82.0579L82.804 83.5035L79.5065 80.0223L80.3922 79.1833Z" fill="white"/>
<path d="M71.6594 85.8184C72.065 85.5743 72.4944 85.4249 72.9477 85.37C73.4027 85.318 73.8517 85.3532 74.2949 85.4756C74.7353 85.5996 75.1451 85.8024 75.5245 86.0837C75.9027 86.3697 76.2207 86.7268 76.4785 87.1553C76.738 87.5865 76.9046 88.0348 76.9783 88.5001C77.0509 88.9699 77.0381 89.4269 76.9397 89.8712C76.8402 90.3201 76.6601 90.7319 76.3993 91.1067C76.1403 91.4843 75.8079 91.7951 75.4023 92.0392C74.9168 92.3313 74.4019 92.4874 73.8577 92.5075C73.3152 92.5305 72.7972 92.4357 72.3036 92.2231L72.936 91.1598C73.2299 91.267 73.5404 91.3077 73.8674 91.2822C74.1915 91.2583 74.4935 91.1622 74.7734 90.9938C75.0361 90.8357 75.2506 90.6328 75.4166 90.385C75.5844 90.1402 75.6978 89.8696 75.7569 89.5734C75.8177 89.2801 75.821 88.9785 75.7669 88.6688C75.7145 88.3618 75.6032 88.067 75.4331 87.7842C75.2613 87.4986 75.052 87.2608 74.8054 87.0707C74.5559 86.8824 74.2865 86.7449 73.9971 86.6584C73.7095 86.5747 73.4188 86.5474 73.125 86.5763C72.83 86.6098 72.5512 86.7056 72.2884 86.8637C72.0028 87.0356 71.775 87.2583 71.6049 87.5317C71.4338 87.8098 71.3267 88.1037 71.2836 88.4136L70.0455 88.47C70.0905 87.9372 70.2494 87.4351 70.5221 86.9637C70.7948 86.4923 71.1739 86.1105 71.6594 85.8184Z" fill="white"/>
<path d="M65.021 96.3841L63.6564 96.8439L64.7078 92.4323L63.7004 89.4424L64.8565 89.0529L65.8639 92.0427L69.3707 94.9185L68.0061 95.3783L65.7105 93.4979L65.021 96.3841Z" fill="white"/>
<path d="M52 42L54.7009 49.2991L62 52L54.7009 54.7009L52 62L49.2991 54.7009L42 52L49.2991 49.2991L52 42Z" fill="white"/>
</svg>
