<svg width="46" height="46" viewBox="0 0 46 46" fill="none" xmlns="http://www.w3.org/2000/svg">
<rect width="46" height="46" rx="23" fill="#3C66D1"/>
<circle cx="32.8183" cy="29.5454" r="1.45455" fill="#CED4DA"/>
<path fill-rule="evenodd" clip-rule="evenodd" d="M11.3762 19.3636H11.3638V31H13.8626V19.3848C13.5052 19.6021 13.0855 19.7273 12.6366 19.7273C12.1732 19.7273 11.741 19.594 11.3762 19.3636ZM16.0926 22.0489V31H18.5022V26.1664C18.5022 25.5 18.646 24.9381 18.9336 24.4806C19.2212 24.0231 19.6327 23.7944 20.1682 23.7944C20.6144 23.7944 20.9367 23.9634 21.135 24.3016C21.3333 24.6397 21.4325 25.1121 21.4325 25.7188V31H23.8421V26.1664C23.8421 25.5 23.9809 24.9381 24.2586 24.4806C24.5461 24.0231 24.9626 23.7944 25.508 23.7944C25.9542 23.7944 26.2765 23.9634 26.4748 24.3016C26.6732 24.6397 26.7723 25.1121 26.7723 25.7188V31H29.182V25.316C29.182 24.2419 28.944 23.3916 28.468 22.765C27.992 22.1384 27.2731 21.8251 26.3112 21.8251C25.6468 21.8251 25.1262 21.9743 24.7494 22.2727C24.3726 22.571 24.095 22.944 23.9165 23.3916H23.5595C23.3413 22.8943 23.024 22.5114 22.6075 22.2428C22.201 21.9644 21.6903 21.8251 21.0755 21.8251C20.3814 21.8251 19.8508 21.9793 19.4839 22.2876C19.117 22.5959 18.8493 22.9639 18.6807 23.3916H18.3238V22.0489H16.0926Z" fill="#CED4DA"/>
<circle cx="12.6364" cy="16.6364" r="1.63636" fill="#CED4DA"/>
</svg>
