<svg width="40" height="40" viewBox="0 0 40 40" fill="none" xmlns="http://www.w3.org/2000/svg">
<path d="M31.6954 33.6432C33.9244 33.1604 35.9648 31.6492 37.2924 29.4977C38.6467 27.3034 39.0825 24.7192 38.488 22.4072C37.6299 19.0704 34.8943 17.2668 33.3403 16.488C32.1117 15.8728 31.3512 14.6387 31.4031 13.3453C31.4086 13.2184 31.4189 13.1073 31.4293 13.0151C31.7394 10.3711 34.439 8.0731 37.9943 7.42613C38.3196 7.36753 38.5424 7.06541 38.5033 6.73704C38.4655 6.42149 38.1975 6.1865 37.8832 6.1865C37.871 6.1865 37.8588 6.18711 37.8459 6.18772C35.689 6.31346 28.3061 7.22166 23.8811 13.6242C20.7738 18.1201 19.0099 25.0769 22.4791 29.7272C24.3682 32.2601 27.9485 34.4531 31.6954 33.6432ZM24.9089 14.3347C27.0494 11.2384 30.006 9.52879 32.5841 8.58519C31.2432 9.75767 30.3783 11.2439 30.1879 12.8705C30.1738 12.9889 30.161 13.1305 30.1543 13.294C30.0823 15.0787 31.1132 16.7712 32.7806 17.6062C34.4469 18.4405 36.5795 20.0049 37.2771 22.7185C37.788 24.7027 37.4053 26.9348 36.2291 28.8415C35.0786 30.7055 33.3299 32.0105 31.4305 32.4212C30.9929 32.5165 30.5547 32.5604 30.1213 32.5604C27.404 32.5604 24.8583 30.8264 23.4813 28.9801C19.912 24.1949 22.8545 17.3077 24.9089 14.3347Z" fill="white"/>
<path d="M12.3704 33.6428C14.5994 33.16 16.6392 31.6494 17.9667 29.4979C19.321 27.3037 19.7574 24.7189 19.163 22.4069C18.3042 19.0701 15.5692 17.2659 14.0153 16.4877C12.786 15.8724 12.0255 14.6383 12.078 13.345C12.0835 13.2192 12.0927 13.1094 12.1042 13.0148C12.4143 10.3707 15.1139 8.07276 18.6692 7.42579C18.9945 7.36719 19.2173 7.06507 19.1782 6.7367C19.1404 6.42115 18.8724 6.18616 18.5581 6.18616C18.5459 6.18616 18.5337 6.18677 18.5209 6.18738C16.3639 6.31312 8.98108 7.22132 4.55603 13.6239C1.44873 18.1191 -0.315799 25.0759 3.15405 29.7268C5.04309 32.2598 8.62646 34.4515 12.3704 33.6428ZM5.58386 14.3344C7.72436 11.238 10.6803 9.52906 13.2578 8.58484C11.9175 9.75672 11.0538 11.2423 10.8628 12.8671C10.8488 12.9861 10.8359 13.1289 10.8292 13.2937C10.7566 15.0778 11.7875 16.7703 13.4556 17.6058C15.1212 18.4396 17.2538 20.0039 17.952 22.7181C18.4623 24.703 18.0802 26.9351 16.9034 28.8418C15.7529 30.7052 14.0043 32.0101 12.1055 32.4209C11.6678 32.5161 11.2302 32.5601 10.7963 32.5601C8.07898 32.5601 5.53259 30.8261 4.15625 28.9797C0.586301 24.194 3.52942 17.3074 5.58386 14.3344Z" fill="white"/>
</svg>
