<svg width="32" height="32" viewBox="0 0 32 32" fill="none" xmlns="http://www.w3.org/2000/svg">
<path d="M22.6666 28V25.3333C22.6666 23.9188 22.1047 22.5623 21.1045 21.5621C20.1043 20.5619 18.7477 20 17.3333 20H6.66658C5.2521 20 3.89554 20.5619 2.89535 21.5621C1.89516 22.5623 1.33325 23.9188 1.33325 25.3333V28M30.6666 28V25.3333C30.6657 24.1516 30.2724 23.0037 29.5484 22.0698C28.8244 21.1358 27.8108 20.4688 26.6666 20.1733M21.3333 4.17333C22.4805 4.46707 23.4973 5.13427 24.2234 6.06975C24.9496 7.00523 25.3437 8.15577 25.3437 9.34C25.3437 10.5242 24.9496 11.6748 24.2234 12.6103C23.4973 13.5457 22.4805 14.2129 21.3333 14.5067M17.3333 9.33333C17.3333 12.2789 14.9454 14.6667 11.9999 14.6667C9.0544 14.6667 6.66658 12.2789 6.66658 9.33333C6.66658 6.38781 9.0544 4 11.9999 4C14.9454 4 17.3333 6.38781 17.3333 9.33333Z" stroke="white" stroke-width="1.5" stroke-linecap="round" stroke-linejoin="round"/>
</svg>
