<svg width="64" height="44" viewBox="0 0 64 44" fill="none" xmlns="http://www.w3.org/2000/svg">
<circle cx="60" cy="40" r="4" fill="#fff"/>
<path fill-rule="evenodd" clip-rule="evenodd" d="M1.03431 12H1V44H7.8719V12.0581C6.88881 12.6558 5.7346 13 4.5 13C3.22592 13 2.03745 12.6334 1.03431 12ZM14.0043 19.3846V44H20.6308V30.7077C20.6308 28.8752 21.0262 27.3299 21.817 26.0718C22.6078 24.8137 23.7395 24.1846 25.2121 24.1846C26.4392 24.1846 27.3255 24.6496 27.8708 25.5795C28.4162 26.5094 28.6889 27.8085 28.6889 29.4769V44H35.3154V30.7077C35.3154 28.8752 35.6972 27.3299 36.4607 26.0718C37.2515 24.8137 38.3969 24.1846 39.8967 24.1846C41.1238 24.1846 42.01 24.6496 42.5554 25.5795C43.1008 26.5094 43.3735 27.8085 43.3735 29.4769V44H50V28.3692C50 25.4154 49.3455 23.0769 48.0366 21.3538C46.7277 19.6308 44.7506 18.7692 42.1055 18.7692C40.2784 18.7692 38.8468 19.1795 37.8106 20C36.7743 20.8205 36.0108 21.8462 35.5199 23.0769H34.5382C33.9383 21.7094 33.0657 20.6564 31.9204 19.918C30.8023 19.1521 29.3979 18.7692 27.7072 18.7692C25.7984 18.7692 24.3394 19.1932 23.3305 20.041C22.3215 20.8889 21.5852 21.9009 21.1217 23.0769H20.14V19.3846H14.0043Z" fill="#3C66D1"/>
<circle cx="4.5" cy="4.5" r="4.5" fill="#fff"/>
</svg>
